<svg id="Layer_1" data-name="Layer 1" xmlns="http://www.w3.org/2000/svg" xmlns:xlink="http://www.w3.org/1999/xlink"
     viewBox="0 0 557.21 780.64">
    <defs>
        <style>
            .cls-1,.cls-3{fill:#010101;stroke:#f6eb16;stroke-miterlimit:10;}.cls-1{stroke-width:0.61px;}.cls-2{fill:url(#linear-gradient);}.cls-3{stroke-width:0.61px;}
        </style>
        <linearGradient id="linear-gradient" x1="171.39" y1="450" x2="728.61" y2="450" gradientUnits="userSpaceOnUse">
            <stop offset="0.01" stop-color="#8d191d"/>
            <stop offset="0.5" stop-color="#ac1f25"/>
            <stop offset="1" stop-color="#dc2628"/>
        </linearGradient>
    </defs>
    <title>Профилна АИ 1 SVG</title>
    <path class="cls-1"
          d="M304.76,358.52c.49-12.73,6.27-22.31,17.34-28.51,3.65-2,7.68-3.39,11.54-5.06l.72,1-4.26,4.94,27.13,19.58L336,379.92l-26.81-19.56-4.09,5.05-.58-3.59C304.59,360.72,304.72,359.62,304.76,358.52Z"
          transform="translate(-171.39 -67.38)"/>
    <path class="cls-1"
          d="M365,350c4.22-5.77,10.66-6.57,16.35-2.23,1.9,1.45,3.77,2.94,5.7,4.44l3.59-4.87c-.49-.4-.87-.74-1.27-1-3.86-2.79-7.75-5.54-11.58-8.38-3.06-2.28-3.68-5.17-1.88-8.13,2.18-3.57,5.65-4,9.55-1.22l95,68.64a13.46,13.46,0,0,1,1.61,1.3,5.4,5.4,0,0,1,1.07,6.84c-2.11,3.94-5.71,4.54-9.81,1.59q-33.4-24.12-66.78-48.26a16.38,16.38,0,0,1-2-1.92L400,362.4,575.49,501.23l-26.22,36.35c-1.42-.91-2.95-1.89-4.46-2.88l-74.25-48.85q-63.94-42.06-127.88-84.12c-6.12-4-7.43-10.48-3.21-16.38Q352.16,367.59,365,350Z"
          transform="translate(-171.39 -67.38)"/>
    <path class="cls-1"
          d="M600.81,540.2c2.76,4.36,2.68,4.31-.21,8.53a3,3,0,0,1-3.81,1.4c-11.81-3-23.64-6-35.47-8.93l-7.27-1.82,24.65-34.14C586,516.82,593.42,528.51,600.81,540.2Z"
          transform="translate(-171.39 -67.38)"/>
    <path class="cls-1"
          d="M602.59,552.54l7.35,2.22a.74.74,0,0,0,.79-1.16l-4.77-6a.74.74,0,0,0-1.19,0l-2.58,3.81A.73.73,0,0,0,602.59,552.54Z"
          transform="translate(-171.39 -67.38)"/>
    <path class="cls-2"
          d="M706.31,461.85c-1-2.46-1.3-5.83.93-7.27A19.45,19.45,0,0,1,692,432.18c.43-2.42,2-5.24,4.46-5-3.9-2.88-7.82-6.52-8.48-11.32-.47-3.46.86-6.89,2.28-10.07s3.39-6.88,6.79-8.19a18.94,18.94,0,0,1,12.48-29.75,8.55,8.55,0,0,1,3.56-13.5c-39-107.14-141.81-183.64-262.45-183.64a278.29,278.29,0,0,0-191.85,76.34c3.22,2.48,3.81,7.12,3.38,11.17a16,16,0,0,1-1.68,6.08,7.92,7.92,0,0,1-4.73,4A9.93,9.93,0,0,1,259,284.89a7.15,7.15,0,0,1-3.22,1.79,10.9,10.9,0,0,1-2.91.12l-8.55-.4a6.78,6.78,0,0,1,2.54,5,14.59,14.59,0,0,1-.9,5.68,8.27,8.27,0,0,1-2.19,3.86c-1.83,1.59-4.52,1.51-6.94,1.35l-6.44-.44A7.82,7.82,0,0,1,230,313.3a11.92,11.92,0,0,1-5.39,2.06,27.9,27.9,0,0,1-11.36-.55c-1.78-.46-4-.94-6.07-1.58a279.38,279.38,0,0,0,32.24,319.38c3.08-4.83,5.66-11.05,10.68-13.62a24.31,24.31,0,0,1,16.19-2.23c2.95.65,8.5,2.24,7.85,6.31a19.92,19.92,0,0,1,20.75-1.57,18.8,18.8,0,0,1,6.44,5.68c.67,1,2.72,5.56.43,6,4.31-.91,9.07-1.44,13.14.64,4.66,2.37,7.49,8.09,8.42,13,.14.72,1.28,6.59.13,6.46a18.93,18.93,0,0,1,16.45,22.91,18.24,18.24,0,0,1-1,3.32c-.15.36-1.13,2.9-1.51,2.88a8.65,8.65,0,0,1,8.05,9.94,8.84,8.84,0,0,1-1.28,3.4c-2.35,3.81-7.32,6.43-11.33,7.25l-.27.06a280.25,280.25,0,0,0,206.7,11.83,19.49,19.49,0,0,1,6.44-6.58c2.08-1.3,5.24-2,6.66,0-.44-4.83-.34-10.17,2.81-13.86,2.26-2.65,5.7-3.94,9-5s7.38-2,10.63-.39a18.94,18.94,0,0,1,30.51-10.49A8.55,8.55,0,0,1,618.79,673,279,279,0,0,0,728.61,476.89,24.69,24.69,0,0,1,706.31,461.85ZM261.87,526.63A203.15,203.15,0,0,1,247,450c0-112.49,91.19-203.68,203.68-203.68a203.1,203.1,0,0,1,147.8,63.54Zm188.77,127a203.13,203.13,0,0,1-147.77-63.5L639.43,373.42A203.07,203.07,0,0,1,654.32,450C654.32,562.49,563.13,653.68,450.64,653.68Z"
          transform="translate(-171.39 -67.38)"/>
    <path class="cls-3"
          d="M234,212.36l-41.23-56.84,11.14-8.08,16.54,22.82,13.64-9.89-16.54-22.82,11.13-8.07,41.22,56.84-11.13,8.07-17.51-24.15-13.64,9.9,17.51,24.14Z"
          transform="translate(-171.39 -67.38)"/>
    <path class="cls-3"
          d="M277.71,181.91l-32.18-62.4,33.13-17.09,5.6,10.85-20.92,10.78,7.59,14.72,15.84-8.17,4.88,9.47-15.83,8.17,8.61,16.7,21.78-11.23,5.5,10.67Z"
          transform="translate(-171.39 -67.38)"/>
    <path class="cls-3"
          d="M333.4,81.88C347.75,77.81,358,84.38,362,98.45l6.74,23.75c4,14.07-1.25,25-15.6,29.09s-24.57-2.49-28.56-16.56L317.79,111C313.8,96.91,319.05,86,333.4,81.88ZM337.85,131c2.44,8.57,6.09,11.16,12.15,9.44s7.8-5.83,5.37-14.41l-6.74-23.75c-2.35-8.3-6-10.79-12-9.07s-7.85,5.65-5.48,14Z"
          transform="translate(-171.39 -67.38)"/>
    <path class="cls-3" d="M369.12,86.05l-1.48-12.11,42.1-5.14,1.48,12.11-14.13,1.73,7,57.58-13.75,1.68-7-57.58Z"
          transform="translate(-171.39 -67.38)"/>
    <path class="cls-3"
          d="M422.81,137.9l.3-70.21,20.44.09c14.43.06,20.4,7.83,20.35,18.48,0,7.75-2.37,12.58-8.29,15v.19c7.54,2.17,10.91,8.09,10.87,16.32-.06,12.69-5.22,20.32-20.72,20.25Zm13.6-30.54-.09,19.08,8.82,0c5.42,0,7.66-2.19,7.69-9.65s-2.09-9.4-7.61-9.43Zm.11-27.8L436.45,97l7.46,0c5.52,0,7.27-2.78,7.3-9.08s-1.9-8.33-7.23-8.36Z"
          transform="translate(-171.39 -67.38)"/>
    <path class="cls-3"
          d="M504.54,71.86c14.72,2.38,21.2,12.65,18.86,27.09l-3.95,24.37c-2.34,14.44-11.73,22.14-26.45,19.75S471.8,130.42,474.14,116l3.95-24.37C480.43,77.17,489.82,69.47,504.54,71.86ZM487.81,118.2c-1.43,8.79.79,12.68,7,13.69s9.55-2,11-10.78l4-24.38c1.38-8.51-.85-12.3-7.06-13.31s-9.52,1.8-10.91,10.4Z"
          transform="translate(-171.39 -67.38)"/>
    <path class="cls-3"
          d="M522.55,147.68l21.77-66.75,21.54,7c12.34,4,16.63,14.28,12.16,28-4.42,13.53-13.66,19.38-25.44,15.54l-9.3-3-7.66,23.47Zm24.09-29.53,8.11,2.65c4.6,1.5,7.49-1.12,10-9,2.61-8,1.7-11.46-2.9-13l-8.1-2.65Z"
          transform="translate(-171.39 -67.38)"/>
    <path class="cls-3"
          d="M607.73,104.61l14.16,7-14.08,71.33-12.6-6.21,3.59-15.18L582,153.27l-9.76,12.14-12.51-6.16ZM588.7,145l12.6,6.21L608.91,120l-.18-.08Z"
          transform="translate(-171.39 -67.38)"/>
    <path class="cls-3"
          d="M610.81,184.42l42-56.24,10.32,7.72-10.72,42.64.16.12,37.79-22.41L700.7,164l-42,56.23-10-7.48,24.82-33.2-.16-.11-29.65,16-5-3.71,7-32.84-.16-.11L620.82,191.9Z"
          transform="translate(-171.39 -67.38)"/>
    <path class="cls-3"
          d="M302.17,819.53l26.48-80.77,24.4,8c17.6,5.77,21.44,17.4,17.42,29.65-2.81,8.58-7.08,13.35-14.72,14.05l-.07.23c7.52,5.3,9,13.19,6,22.32-4.68,14.26-13.39,21.65-32.11,15.51Zm29.41-28-6,18.38,8.24,2.7c4.91,1.61,7.38.08,9.72-7,2.52-7.69,1.32-9.69-3.8-11.37Zm10.08-30.75-5.55,16.93L343,780c5,1.64,7.41-.41,9.46-6.65,2.11-6.46,1-8.68-4-10.32Z"
          transform="translate(-171.39 -67.38)"/>
    <path class="cls-3"
          d="M372.11,840.29,383.4,756l28.12,3.77c16,2.15,23.8,14,21.42,31.74-2.36,17.54-12.47,26.83-27.69,24.79L395.48,815l-3.74,27.89Zm25.42-40.48,7.78,1c4.42.6,6.73-2.52,8-11.7s-.24-12.34-4.66-12.93l-7.78-1Z"
          transform="translate(-171.39 -67.38)"/>
    <path class="cls-3"
          d="M430.75,847.7l19.51-85.5,22.86-.55,23.62,84.46-20.16.49L472.78,830l-19.23.46-2.88,16.72Zm38.74-32.36-7.55-35.83h-.24l-5.57,36.14Z"
          transform="translate(-171.39 -67.38)"/>
    <path class="cls-3" d="M488.75,778.53l-3.41-17.25,51.42-10.14,3.4,17.25-15.87,3.13,13,66.14-19.44,3.84-13-66.14Z"
          transform="translate(-171.39 -67.38)"/>
    <path class="cls-3"
          d="M558,833.75l-9.46-87.19,21.43-8,49.89,72.13-18.9,7-9-14.42L574,810l2.74,16.75Zm26.06-43.24-18.83-31.4-.22.09,6.52,36Z"
          transform="translate(-171.39 -67.38)"/>
</svg>
